<?xml version="1.0" encoding="utf-8"?>
<!-- Generator: Adobe Illustrator 13.0.0, SVG Export Plug-In . SVG Version: 6.00 Build 14948)  -->
<!DOCTYPE svg PUBLIC "-//W3C//DTD SVG 1.1//EN" "http://www.w3.org/Graphics/SVG/1.1/DTD/svg11.dtd">
<svg version="1.1" id="Layer_1" xmlns="http://www.w3.org/2000/svg" xmlns:xlink="http://www.w3.org/1999/xlink" x="0px" y="0px"
	 width="40px" height="40px" viewBox="0 0 40 40" enable-background="new 0 0 40 40" xml:space="preserve">
<g>
	<path fill="#26A6D1" d="M20,0c11.047,0,20,8.955,20,20c0,11.047-8.953,20-20,20C8.954,40,0,31.047,0,20C0,8.955,8.954,0,20,0z"/>
	<path fill="#FFFFFF" d="M32.504,13.474c-0.874,0.377-1.814,0.631-2.801,0.747c1.008-0.586,1.781-1.513,2.145-2.619
		c-0.942,0.544-1.985,0.938-3.096,1.149c-0.89-0.919-2.156-1.493-3.559-1.493c-2.689,0-4.872,2.117-4.872,4.729
		c0,0.371,0.042,0.732,0.126,1.079c-4.05-0.197-7.643-2.081-10.045-4.942c-0.42,0.699-0.66,1.51-0.66,2.377
		c0,1.64,0.86,3.09,2.167,3.937c-0.8-0.025-1.55-0.236-2.209-0.593v0.06c0,2.292,1.68,4.204,3.91,4.639
		c-0.409,0.107-0.839,0.166-1.284,0.166c-0.314,0-0.619-0.029-0.917-0.085c0.62,1.88,2.42,3.247,4.554,3.284
		c-1.668,1.271-3.77,2.025-6.054,2.025c-0.394,0-0.781-0.021-1.164-0.066c2.159,1.343,4.719,2.127,7.473,2.127
		c8.965,0,13.868-7.21,13.868-13.46l-0.014-0.612C31.023,15.256,31.85,14.424,32.504,13.474z"/>
</g>
</svg>
