<?xml version="1.0" encoding="utf-8"?>
<!-- Generator: Adobe Illustrator 13.0.0, SVG Export Plug-In . SVG Version: 6.00 Build 14948)  -->
<!DOCTYPE svg PUBLIC "-//W3C//DTD SVG 1.1//EN" "http://www.w3.org/Graphics/SVG/1.1/DTD/svg11.dtd">
<svg version="1.1" id="Layer_1" xmlns="http://www.w3.org/2000/svg" xmlns:xlink="http://www.w3.org/1999/xlink" x="0px" y="0px"
	 width="40px" height="40px" viewBox="0 0 40 40" enable-background="new 0 0 40 40" xml:space="preserve">
<circle fill="#AE87BD" cx="20" cy="20" r="20"/>
<g>
	<path fill="#FFFFFF" d="M31.904,12.354h-3.175V9.498c0-0.584-0.474-1.058-1.058-1.058H12.328c-0.584,0-1.058,0.474-1.058,1.058
		v2.857H8.096c-0.584,0-1.058,0.474-1.058,1.058v10.37c0,0.584,0.474,1.058,1.058,1.058h3.174v5.577
		c0,0.353,0.071,0.615,0.344,0.865c0.127,0.116,0.263,0.191,0.428,0.238c0.153,0.042,0.305,0.039,0.46,0.039h14.996
		c0.154,0,0.307,0.003,0.46-0.039c0.165-0.047,0.302-0.122,0.429-0.239c0.272-0.249,0.343-0.514,0.343-0.865V24.84h3.175
		c0.585,0,1.059-0.474,1.059-1.058v-10.37C32.963,12.828,32.489,12.354,31.904,12.354L31.904,12.354z M9.683,16.085
		c-0.511,0-0.926-0.415-0.926-0.926c0-0.512,0.415-0.926,0.926-0.926s0.926,0.415,0.926,0.926
		C10.609,15.67,10.194,16.085,9.683,16.085L9.683,16.085z M27.672,30.501H12.328v-8.359h15.344V30.501z M27.672,12.354H12.328
		v-1.799c0-0.584,0.474-1.058,1.059-1.058h13.228c0.584,0,1.058,0.474,1.058,1.058C27.672,11.155,27.672,11.755,27.672,12.354
		L27.672,12.354z M27.672,12.354"/>
</g>
</svg>
