<?xml version="1.0" encoding="utf-8"?>
<!-- Generator: Adobe Illustrator 13.0.0, SVG Export Plug-In . SVG Version: 6.00 Build 14948)  -->
<!DOCTYPE svg PUBLIC "-//W3C//DTD SVG 1.1//EN" "http://www.w3.org/Graphics/SVG/1.1/DTD/svg11.dtd">
<svg version="1.1" id="Layer_1" xmlns="http://www.w3.org/2000/svg" xmlns:xlink="http://www.w3.org/1999/xlink" x="0px" y="0px"
	 width="40px" height="40px" viewBox="0 0 40 40" enable-background="new 0 0 40 40" xml:space="preserve">
<g>
	<path fill="#3B5998" d="M40,20c0,11.045-8.955,20-20,20C8.955,40,0,31.045,0,20C0,8.955,8.955,0,20,0C31.045,0,40,8.955,40,20
		L40,20z M40,20"/>
	<path fill="#FFFFFF" d="M25.027,20.783h-3.568v13.073h-5.407V20.783H13.48v-4.596h2.572v-2.973c0-2.126,1.009-5.457,5.456-5.457
		l4.004,0.018v4.46h-2.906c-0.477,0-1.146,0.238-1.146,1.251v2.705h4.042L25.027,20.783z M25.027,20.783"/>
</g>
</svg>
