<?xml version="1.0" encoding="UTF-8" standalone="no"?>
<svg
   xmlns:dc="http://purl.org/dc/elements/1.1/"
   xmlns:cc="http://creativecommons.org/ns#"
   xmlns:rdf="http://www.w3.org/1999/02/22-rdf-syntax-ns#"
   xmlns:svg="http://www.w3.org/2000/svg"
   xmlns="http://www.w3.org/2000/svg"
   xmlns:sodipodi="http://sodipodi.sourceforge.net/DTD/sodipodi-0.dtd"
   xmlns:inkscape="http://www.inkscape.org/namespaces/inkscape"
   width="1em"
   height="1em"
   viewBox="0 0 16 16"
   class="bi bi-target-circle"
   fill="#FFF"
   version="1.1"
   id="svg6"
   sodipodi:docname="locateUserPos.svg"
   inkscape:version="1.0.1 (3bc2e813f5, 2020-09-07)">
  <metadata
     id="metadata12">
    <rdf:RDF>
      <cc:Work
         rdf:about="">
        <dc:format>image/svg+xml</dc:format>
        <dc:type
           rdf:resource="http://purl.org/dc/dcmitype/StillImage" />
      </cc:Work>
    </rdf:RDF>
  </metadata>
  <defs
     id="defs10" />
  <sodipodi:namedview
     pagecolor="#ffffff"
     bordercolor="#666666"
     borderopacity="1"
     objecttolerance="10"
     gridtolerance="10"
     guidetolerance="10"
     inkscape:pageopacity="0"
     inkscape:pageshadow="2"
     inkscape:window-width="1656"
     inkscape:window-height="931"
     id="namedview8"
     showgrid="false"
     inkscape:zoom="1.6234774"
     inkscape:cx="6.5221241"
     inkscape:cy="7.1900738"
     inkscape:window-x="131"
     inkscape:window-y="8"
     inkscape:window-maximized="0"
     inkscape:current-layer="svg6" />
  <path
     fill-rule="evenodd"
     d="m 8,12.41 a 4.41,4.41 0 1 0 0,-8.82 4.41,4.41 0 0 0 0,8.82 z m 0,0.63 A 5.04,5.04 0 1 0 8,2.96 5.04,5.04 0 0 0 8,13.04 Z"
     id="path2"
     style="stroke-width:0.63" />
  <path
     fill-rule="evenodd"
     d="M 0.0855751,8 A 0.20680277,0.405 0 0 1 0.29237864,7.595 H 3.1876202 a 0.20680279,0.405 0 0 1 0,0.81 H 0.29237785 A 0.20680277,0.405 0 0 1 0.0855751,8 Z"
     id="path4"
     style="stroke-width:0.57881" />
  <path
     fill-rule="evenodd"
     d="m 12.509674,7.9969792 a 0.21118202,0.405 0 0 1 0.211175,-0.405 h 2.956549 a 0.21118202,0.405 0 0 1 0,0.81 h -2.956549 a 0.21118202,0.405 0 0 1 -0.211175,-0.405 z"
     id="path4-1"
     style="stroke-width:0.584906" />
  <circle
     fill-rule="evenodd"
     id="path29"
     cx="8.0433893"
     cy="7.9923186"
     r="0.76603693" />
  <path
     fill-rule="evenodd"
     d="m 8.0338387,0.0887583 a 0.405,0.21130232 0 0 1 0.405,0.2113037 v 2.9582355 a 0.405,0.21130232 0 0 1 -0.81,0 V 0.30006044 a 0.405,0.21130232 0 0 1 0.405,-0.21130214 z"
     id="path4-6"
     style="stroke-width:0.585073" />
  <path
     fill-rule="evenodd"
     d="m 8.033839,12.411761 a 0.405,0.22030733 0 0 1 0.4049998,0.220299 v 3.084307 a 0.405,0.22030733 0 0 1 -0.8099998,0 v -3.084309 a 0.405,0.22030733 0 0 1 0.405,-0.220297 z"
     id="path4-6-6"
     style="stroke-width:0.59741" />
</svg>
